# xmcd
#
# Track frame offsets:
#	150
#	11292
#	21585
#	32495
#	43373
#	58415
#	80075
#	90448
#	100800
#	113607
#	136594
#	153322
#	168117
#	179180
#	194707
#	215492
#
# Disc length: 3150 seconds
#
# Revision: 1
# Processed by: cddbd v1.5.2PL0 Copyright (c) Steve Scherf et al.
# Submitted via: audiograbber 1.83.01
#
DISCID=d90c4c10
DTITLE=Country Legends - Volume One
DYEAR=1900
DGENRE=Country
TTITLE0=Gene Watson - Memories To Burn
TTITLE1=Gene Watson - Drinkin' My Way back Home
TTITLE2=Gene Watson - You' out Doin' (What I'm Doin' Without)
TTITLE3=Gene Watson - Farewell Party
TTITLE4=Gene Watson - Carmen
TTITLE5=Bellamy Brothers - If I Said You Had A Beautiful Body
TTITLE6=Bellamy Brothers - Let Your Love Flow
TTITLE7=Bellamy Brothers - Redneck Girl
TTITLE8=Tanya Tucker - Sant Antonio Stroll
TTITLE9=Tanya Tucker - Texas When I Die
TTITLE10=Tanya Tucker - The Night They Drove Old Dixie Down
TTITLE11=Tanya Tucker - What's Your Mama's Name
TTITLE12=Tanya Tucker - Pecos Promenade
TTITLE13=Tanya Tucker - You Are So Beautiful To Me
TTITLE14=Tanya Tucker - Baby I'm Yours
TTITLE15=Tanya Tucker - Delta Dawn
EXTD=
EXTT0=
EXTT1=
EXTT2=
EXTT3=
EXTT4=
EXTT5=
EXTT6=
EXTT7=
EXTT8=
EXTT9=
EXTT10=
EXTT11=
EXTT12=
EXTT13=
EXTT14=
EXTT15=
PLAYORDER=
